<svg id="_2258525753856" xmlns="http://www.w3.org/2000/svg" viewBox="0 0 286.877 85.336">
  <defs>
    <style>
      .cls-1 {
        fill: none;
      }

      .cls-2 {
        fill: #0085ff;
      }
    </style>
  </defs>
  <rect id="Rectangle_1" data-name="Rectangle 1" class="cls-1" width="286.877" height="85.336"/>
  <g id="Group_2" data-name="Group 2" transform="translate(10.62 14.413)">
    <g id="Group_1" data-name="Group 1" transform="translate(69.986)">
      <path id="Path_1" data-name="Path 1" class="cls-2" d="M32630.773,10310.29q-1.752,0-1.766-1.5l-.016-2.988c-.008-1,.582-1.5,1.75-1.5h1.668l-.023-4.185c-.023-3.648,1.012-6.09,3.086-7.3a14.54,14.54,0,0,1,7.449-1.819,24.2,24.2,0,0,1,3.523.229,19.886,19.886,0,0,1,2.605.606,1.092,1.092,0,0,1,.781,1.49l-.867,3.37c-.176.661-.637.854-1.367.6a8.3,8.3,0,0,0-1.828-.338c-.8-.069-1.414-.1-1.867-.1q-2.174,0-2.672,1.52a16.4,16.4,0,0,0-.484,4.738l.008,1.189h3.934c1.164,0,1.758.5,1.766,1.5l.016,2.988c0,1-.582,1.5-1.75,1.5h-3.934l.133,23.544a1.584,1.584,0,0,1-1.781,1.8h-4.777a1.6,1.6,0,0,1-1.8-1.8l-.125-23.544Z" transform="translate(-32481.389 -10291.001)"/>
      <path id="Path_2" data-name="Path 2" class="cls-2" d="M31187.934,12055.322a1.6,1.6,0,0,1-1.8-1.8l-.145-27.735a1.576,1.576,0,0,1,1.781-1.79h4.768a1.589,1.589,0,0,1,1.8,1.79l.154,27.735a1.584,1.584,0,0,1-1.781,1.8Z" transform="translate(-31049.467 -12010.692)"/>
      <path id="Path_3" data-name="Path 3" class="cls-2" d="M20575.934,11976.93a1.586,1.586,0,0,1-1.779-1.8l-.154-27.735a1.578,1.578,0,0,1,1.781-1.79h4.715a1.587,1.587,0,0,1,1.8,1.781c.023,4.07-.107,1.253,2.619-.937a6.784,6.784,0,0,1,4.338-1.451,8.281,8.281,0,0,1,2.834.415,1.128,1.128,0,0,1,.813,1.436l-.812,3.548c-.168.8-.707,1.029-1.605.714a4.673,4.673,0,0,0-1.506-.252c-1.92,0-3.51,1.136-4.752,3.416s-1.859,5.6-1.838,9.952l.055,10.9a1.571,1.571,0,0,1-1.766,1.8Z" transform="translate(-20518.965 -11932.299)"/>
      <path id="Path_4" data-name="Path 4" class="cls-2" d="M16317.957,11881.271q-.032-7.556,3.711-11.918,3.732-4.342,10.613-4.354,7.957,0,11.855,4.123t3.938,13.256c.008,1.188-.553,1.789-1.658,1.789h-19.666c.33,3.3,1.168,5.373,2.48,6.227a8.166,8.166,0,0,0,4.57,1.281,8.721,8.721,0,0,0,3.785-.66,6.42,6.42,0,0,0,2.2-1.789,1.7,1.7,0,0,1,2.5-.414l2.986,1.82c1.168.721,1.344,1.574.523,2.572a11.458,11.458,0,0,1-4.238,3.256c-1.629.721-4.193,1.082-7.711,1.082q-8.522,0-12.186-4.361T16317.957,11881.271Zm8.764-3.086h12.977a8.25,8.25,0,0,0-1.643-5.275c-1.068-1.367-2.789-2.051-5.139-2.051a5.483,5.483,0,0,0-4.437,1.957A8.732,8.732,0,0,0,16326.721,11878.186Z" transform="translate(-16295.604 -11852.913)"/>
      <path id="Path_5" data-name="Path 5" class="cls-2" d="M13408.774,10790.59c-1.175,0-1.768-.5-1.768-1.5l-.016-2.987q-.01-1.5,1.744-1.5h2.026l-.007-1.037a4.823,4.823,0,0,1,.613-2.434l2.282-4.009a1.83,1.83,0,0,1,1.536-1.128h2.089a1.583,1.583,0,0,1,1.8,1.78l.038,6.827h4.823c1.175,0,1.766.5,1.766,1.5l.016,2.987q.01,1.5-1.744,1.5h-4.829l.077,14.767a15.428,15.428,0,0,0,.46,4.361c.291.884,1.045,1.321,2.257,1.321a7.938,7.938,0,0,0,2.083-.314,11.511,11.511,0,0,0,1.812-.607q1.036-.472,1.366.691l.914,3.387a1.169,1.169,0,0,1-.769,1.49,14.237,14.237,0,0,1-2.687.844,15.687,15.687,0,0,1-3.434.377,14.277,14.277,0,0,1-7.293-1.767c-2-1.168-3.025-3.579-3.041-7.234l-.092-17.315Z" transform="translate(-13406.991 -10772.277)"/>
      <path id="Path_6" data-name="Path 6" class="cls-2" d="M23198.973,11888.6q-.035-5.965,5.629-8.646a31.979,31.979,0,0,1,12.955-2.865v-1.2c-.018-1.836-.477-3.133-1.4-3.885a5.71,5.71,0,0,0-3.8-1.145,8.848,8.848,0,0,0-3.049.492,12.458,12.458,0,0,0-2.279,1.135,19.526,19.526,0,0,0-1.729,1.3q-1.359,1.187-2.252.123l-2.486-3.049c-.621-.752-.475-1.521.438-2.326a11.191,11.191,0,0,1,2.418-1.621,20.487,20.487,0,0,1,3.656-1.3,23.751,23.751,0,0,1,5.951-.615q6.188,0,9.521,2.871t3.355,8.432l.1,18.838a1.575,1.575,0,0,1-1.789,1.789h-4.922c-1.09,0-1.629-.6-1.635-1.789-.008-1.674-1.666.783-4.2,1.6a14.619,14.619,0,0,1-4.5.8c-3.258,0-5.729-.807-7.418-2.4A8.641,8.641,0,0,1,23198.973,11888.6Zm8.77-.191a3.759,3.759,0,0,0,.432,1.8,2.552,2.552,0,0,0,1.311,1.121,5.482,5.482,0,0,0,2,.352,9.965,9.965,0,0,0,2.957-.414c4.338-1.312,4.4-10.988-3.562-6.973a6.985,6.985,0,0,0-2.418,1.844A3.663,3.663,0,0,0,23207.742,11888.406Z" transform="translate(-23123.779 -11852.913)"/>
      <path id="Path_7" data-name="Path 7" class="cls-2" d="M27049.916,11984.832c-1.137,0-1.713-.6-1.719-1.789l-.209-39.646a1.575,1.575,0,0,1,1.775-1.791h4.705c.992,0,1.5.592,1.5,1.775l.016,1.7h0a7.623,7.623,0,0,1,3.494-3.316,12.6,12.6,0,0,1,4.662-.768q7.128,0,10.041,4.854a23.978,23.978,0,0,1,.115,22.83q-2.865,4.86-9.99,4.852a12.56,12.56,0,0,1-4.66-.768,7.732,7.732,0,0,1-3.533-3.316h-.121a22.464,22.464,0,0,1,.131,2.379l.061,11.219c.008,1.191-.561,1.783-1.7,1.783Zm6.137-26.193a11.77,11.77,0,0,0,1.682,6.527,4.748,4.748,0,0,0,3.959,2.512q4.16,0,5.424-2.818a18.532,18.532,0,0,0,1.236-7.6,18.744,18.744,0,0,0-1.312-7.586c-.869-1.881-2.68-2.818-5.451-2.818a4.688,4.688,0,0,0-3.941,2.51,11.644,11.644,0,0,0-1.613,6.529Z" transform="translate(-26943.24 -11928.33)"/>
      <path id="Path_8" data-name="Path 8" class="cls-2" d="M35268.211,11957.586l-5.1-15.064a1.878,1.878,0,0,0-1.8-1.521h-4.934c-1.113,0-1.395.768-.84,2.326l10.074,28.988-.082.453a16.852,16.852,0,0,1-1.664,3.916,3.961,3.961,0,0,1-3.656,2.289,5.65,5.65,0,0,1-1.723-.3,1.037,1.037,0,0,0-1.512.9l-.633,3.287c-.172.877.109,1.4.859,1.559a21.7,21.7,0,0,0,4.465.416,8.823,8.823,0,0,0,7.094-2.98,24.007,24.007,0,0,0,4.262-8.285l9.891-30.24c.508-1.559.211-2.326-.875-2.326h-4.961q-1.266,0-1.781,1.521l-5,14.813C35269.383,11959.912,35269.258,11960.129,35268.211,11957.586Z" transform="translate(-35087.484 -11928.33)"/>
      <path id="Path_9" data-name="Path 9" class="cls-2" d="M30950,10326.134a9.252,9.252,0,0,0,2.332-.284c.648-.146.375-.222,1.035-.031a6.644,6.644,0,0,0,1.141.223,11.063,11.063,0,0,0,4.77-.4c1.4-.614,1.746-1.966,1.82-3.439.1-1.966-.117-4.055-1.781-4.869a10.843,10.843,0,0,0-5.77-.353,5.1,5.1,0,0,0-.977.33c-1.668.752-1.832,3-1.7,4.892.105,1.512.4,1.028,0,2.157-.117.339-.238.623-.367.938A4.822,4.822,0,0,1,30950,10326.134Zm7.348-2.941c0,.022-.008.046-.008.069a1.336,1.336,0,0,1-.875.906,1.535,1.535,0,0,1-.5.085,1.658,1.658,0,0,1-.508-.085,1.342,1.342,0,0,1-.867-.906.419.419,0,0,1,0-.069c-.008-.046.059-.077.137-.038a2.47,2.47,0,0,0,1.242.307h0a2.475,2.475,0,0,0,1.246-.307C30957.285,10323.115,30957.348,10323.146,30957.348,10323.192Zm.246-3.5a.815.815,0,0,1,.359,1.59A.815.815,0,0,1,30957.594,10319.691Zm-3.625,0a.816.816,0,1,1-.59,1.013A.8.8,0,0,1,30953.969,10319.691Z" transform="translate(-30815.289 -10316.559)"/>
    </g>
    <path id="Path_10" data-name="Path 10" class="cls-2" d="M4293,10376.79c3.486.284,9.169-.761,12.532-1.521,3.479-.783,2.027-1.214,5.575-.169a37.3,37.3,0,0,0,6.105,1.183c7.556.922,19.2.622,25.624-2.158,7.541-3.264,9.4-10.527,9.8-18.444.53-10.536-.638-21.747-9.576-26.124-7.825-3.816-22.76-3.662-30.977-1.881a27.294,27.294,0,0,0-5.252,1.766c-8.969,4.062-9.875,16.08-9.123,26.255.6,8.116,2.166,5.49.007,11.572-.637,1.8-1.267,3.331-1.989,5.021C4294.259,10375.761,4293.3,10375.876,4293,10376.79Zm39.493-15.78a2.707,2.707,0,0,1-.062.346,7.193,7.193,0,0,1-4.676,4.9,8.673,8.673,0,0,1-5.4,0,7.193,7.193,0,0,1-4.677-4.9,1.391,1.391,0,0,1-.061-.346c-.016-.269.337-.437.737-.2a13.37,13.37,0,0,0,6.7,1.619h.008a13.318,13.318,0,0,0,6.688-1.619C4332.155,10360.572,4332.508,10360.741,4332.493,10361.01Zm1.313-18.8c5.667-1.383,7.541,7.311,1.927,8.523C4330.181,10351.94,4328.2,10343.563,4333.806,10342.212Zm-19.458.007c5.459-1.274,7.656,6.75,2.312,8.424a4.363,4.363,0,0,1-5.49-2.979A4.3,4.3,0,0,1,4314.347,10342.219Z" transform="translate(-4293 -10326.193)"/>
  </g>
</svg>
